<svg width="210" height="55" viewBox="0 0 210 55" fill="none" xmlns="http://www.w3.org/2000/svg">
<path d="M56.3821 12.461C56.2347 12.4568 56.088 12.4821 55.9506 12.5355C55.8132 12.5889 55.688 12.6693 55.5822 12.7719C55.4765 12.8745 55.3924 12.9973 55.335 13.133C55.2776 13.2687 55.248 13.4145 55.248 13.5618C55.248 13.7091 55.2776 13.8549 55.335 13.9905C55.3924 14.1262 55.4765 14.249 55.5822 14.3516C55.688 14.4543 55.8132 14.5347 55.9506 14.5881C56.088 14.6415 56.2347 14.6668 56.3821 14.6625C61.6207 14.6684 66.6431 16.7504 70.3473 20.4518C74.0516 24.1531 76.1352 29.1716 76.1411 34.4061C76.1411 34.6981 76.2572 34.9782 76.4639 35.1847C76.6706 35.3913 76.9509 35.5073 77.2432 35.5073C77.5355 35.5073 77.8158 35.3913 78.0224 35.1847C78.2291 34.9782 78.3452 34.6981 78.3452 34.4061C78.3391 28.5876 76.0231 23.0092 71.9055 18.895C67.7879 14.7808 62.2051 12.4669 56.3821 12.461Z" fill="white"/>
<path d="M63.8722 20.5232C63.6657 20.7298 63.5498 21.0099 63.5498 21.3018C63.5498 21.5938 63.6657 21.8738 63.8722 22.0805C67.5724 25.7861 69.6504 30.8071 69.6504 36.0419C69.6504 41.2766 67.5724 46.2976 63.8722 50.0033C63.6689 50.2105 63.5558 50.4895 63.5572 50.7796C63.5587 51.0697 63.6747 51.3475 63.88 51.5527C64.0853 51.7578 64.3634 51.8737 64.6537 51.8752C64.9441 51.8767 65.2232 51.7636 65.4306 51.5605C69.5441 47.4419 71.8543 41.861 71.8543 36.0423C71.8543 30.2237 69.5441 24.6427 65.4306 20.5241C65.2238 20.3179 64.9436 20.202 64.6514 20.202C64.3592 20.202 64.079 20.3179 63.8722 20.5241" fill="white"/>
<path d="M65.0177 31.5167C64.7255 31.5169 64.4453 31.633 64.2387 31.8395C64.0321 32.0459 63.9159 32.3259 63.9156 32.6179C63.9156 43.5047 54.0537 52.3615 43.1584 52.3615C43.0111 52.3572 42.8644 52.3825 42.727 52.4359C42.5896 52.4893 42.4643 52.5697 42.3586 52.6723C42.2528 52.7749 42.1688 52.8977 42.1114 53.0334C42.054 53.1691 42.0244 53.3149 42.0244 53.4622C42.0244 53.6095 42.054 53.7553 42.1114 53.891C42.1688 54.0266 42.2528 54.1494 42.3586 54.2521C42.4643 54.3547 42.5896 54.4351 42.727 54.4885C42.8644 54.5419 43.0111 54.5672 43.1584 54.5629C55.269 54.5629 66.1188 44.718 66.1188 32.6169C66.1186 32.325 66.0024 32.045 65.7958 31.8386C65.5891 31.6321 65.309 31.516 65.0168 31.5157" fill="white"/>
<path d="M58.3788 41.251C58.3792 41.1064 58.3509 40.9631 58.2954 40.8294C58.24 40.6958 58.1586 40.5744 58.056 40.4724C57.8461 40.2721 57.567 40.1603 57.2767 40.1603C56.9865 40.1603 56.7074 40.2721 56.4975 40.4724C54.6152 42.37 52.3635 43.8618 49.8814 44.8555C47.3994 45.8492 44.7398 46.3238 42.0669 46.25C41.9225 46.2427 41.7781 46.2656 41.643 46.3171C41.5079 46.3687 41.385 46.4478 41.2821 46.5494C41.1235 46.6994 41.0131 46.8931 40.9648 47.1059C40.9165 47.3187 40.9325 47.5411 41.0108 47.7448C41.0891 47.9485 41.2261 48.1244 41.4046 48.2502C41.583 48.376 41.7948 48.446 42.0131 48.4514C42.1894 48.4514 42.3656 48.457 42.5409 48.457C45.424 48.4639 48.2797 47.8993 50.9429 46.7958C53.6061 45.6924 56.0237 44.0721 58.056 42.0287C58.1587 41.9268 58.2401 41.8054 58.2955 41.6718C58.3509 41.5381 58.3792 41.3948 58.3788 41.2501" fill="white"/>
<path d="M27.2156 41.2541C27.2154 40.9622 27.0992 40.6822 26.8925 40.4758C26.6859 40.2693 26.4058 40.1532 26.1135 40.153H1.78858C1.49629 40.153 1.21598 40.269 1.00931 40.4755C0.802631 40.682 0.686523 40.9621 0.686523 41.2541C0.686523 41.5462 0.802631 41.8263 1.00931 42.0328C1.21598 42.2393 1.49629 42.3553 1.78858 42.3553H26.1135C26.4058 42.3551 26.6859 42.239 26.8925 42.0325C27.0992 41.8261 27.2154 41.5461 27.2156 41.2541Z" fill="white"/>
<path d="M36.3608 40.1489H31.5704C31.2837 40.1573 31.0116 40.2769 30.8118 40.4824C30.6121 40.6879 30.5003 40.9632 30.5003 41.2497C30.5003 41.5362 30.6121 41.8114 30.8118 42.017C31.0116 42.2225 31.2837 42.3421 31.5704 42.3504H45.949C46.2356 42.3421 46.5078 42.2225 46.7075 42.017C46.9073 41.8114 47.0191 41.5362 47.0191 41.2497C47.0191 40.9632 46.9073 40.6879 46.7075 40.4824C46.5078 40.2769 46.2356 40.1573 45.949 40.1489C40.7105 40.1428 35.6883 38.0607 31.984 34.3594C28.2798 30.6581 26.1961 25.6398 26.19 20.4054C26.1942 20.2581 26.1689 20.1115 26.1155 19.9742C26.062 19.837 25.9816 19.7118 25.8789 19.6061C25.7762 19.5005 25.6533 19.4165 25.5175 19.3591C25.3817 19.3018 25.2358 19.2722 25.0884 19.2722C24.941 19.2722 24.7951 19.3018 24.6593 19.3591C24.5235 19.4165 24.4006 19.5005 24.2979 19.6061C24.1952 19.7118 24.1147 19.837 24.0613 19.9742C24.0078 20.1115 23.9825 20.2581 23.9868 20.4054C23.9721 24.5281 25.1265 28.5706 27.3163 32.0648C29.5061 35.559 32.6416 38.3619 36.3598 40.1489" fill="white"/>
<path d="M37.6804 34.6115C37.8982 34.6113 38.111 34.5466 38.292 34.4257C38.473 34.3047 38.6141 34.1329 38.6975 33.9319C38.7809 33.7309 38.8028 33.5097 38.7604 33.2962C38.7181 33.0828 38.6134 32.8867 38.4596 32.7326C36.6247 30.8992 35.1691 28.7226 34.176 26.3271C33.1829 23.9316 32.6718 21.3641 32.6718 18.7712C32.6718 16.1783 33.1829 13.6108 34.176 11.2153C35.1691 8.81977 36.6247 6.64318 38.4596 4.8098C38.5637 4.70793 38.6465 4.58646 38.7032 4.45241C38.76 4.31837 38.7896 4.17442 38.7903 4.02887C38.7911 3.88333 38.7629 3.73908 38.7075 3.60447C38.6521 3.46987 38.5705 3.34757 38.4676 3.24465C38.3646 3.14173 38.2422 3.06024 38.1075 3.00488C37.9727 2.94952 37.8284 2.9214 37.6827 2.92213C37.5371 2.92287 37.393 2.95245 37.2588 3.00916C37.1247 3.06588 37.0031 3.1486 36.9012 3.25256C32.7825 7.36819 30.4688 12.9501 30.4688 18.7703C30.4688 24.5905 32.7825 30.1724 36.9012 34.288C37.0032 34.3907 37.1246 34.4721 37.2584 34.5274C37.3922 34.5828 37.5356 34.6111 37.6804 34.6106" fill="white"/>
<path d="M37.3111 23.2958C37.6033 23.2955 37.8835 23.1794 38.0901 22.973C38.2967 22.7665 38.4129 22.4865 38.4132 22.1946C38.4193 16.9601 40.5031 11.9418 44.2073 8.24051C47.9115 4.53919 52.9337 2.4571 58.1722 2.45097C58.4589 2.44266 58.731 2.32304 58.9308 2.11752C59.1306 1.912 59.2423 1.63676 59.2423 1.35024C59.2423 1.06372 59.1306 0.788477 58.9308 0.582957C58.731 0.377438 58.4589 0.257824 58.1722 0.249512C52.3495 0.255891 46.7672 2.57003 42.65 6.68417C38.5328 10.7983 36.2171 16.3764 36.2109 22.1946C36.2112 22.4865 36.3274 22.7665 36.534 22.973C36.7406 23.1794 37.0208 23.2955 37.313 23.2958" fill="white"/>
<path d="M44.2775 14.7096C44.4875 14.9097 44.7665 15.0214 45.0567 15.0214C45.3469 15.0214 45.626 14.9097 45.836 14.7096C49.5445 11.0122 54.5695 8.93579 59.8083 8.93579C65.0471 8.93579 70.072 11.0122 73.7806 14.7096C73.8826 14.8135 74.0041 14.8962 74.1383 14.9529C74.2724 15.0097 74.4165 15.0392 74.5622 15.04C74.7078 15.0407 74.8522 15.0126 74.9869 14.9572C75.1216 14.9019 75.244 14.8204 75.347 14.7175C75.45 14.6145 75.5316 14.4922 75.587 14.3576C75.6424 14.223 75.6705 14.0788 75.6698 13.9332C75.669 13.7877 75.6394 13.6437 75.5827 13.5097C75.5259 13.3756 75.4431 13.2542 75.3391 13.1523C71.2173 9.04206 65.632 6.73364 59.8088 6.73364C53.9855 6.73364 48.4002 9.04206 44.2784 13.1523C44.072 13.3589 43.9561 13.639 43.9561 13.9309C43.9561 14.2229 44.072 14.5029 44.2784 14.7096" fill="white"/>
<path d="M38.2525 47.3568C38.2523 47.0648 38.1361 46.7849 37.9295 46.5784C37.7228 46.372 37.4427 46.2559 37.1505 46.2556H15.4842C15.1975 46.2639 14.9254 46.3836 14.7256 46.5891C14.5258 46.7946 14.4141 47.0698 14.4141 47.3563C14.4141 47.6429 14.5258 47.9181 14.7256 48.1236C14.9254 48.3292 15.1975 48.4488 15.4842 48.4571H37.1505C37.4427 48.4568 37.7228 48.3407 37.9295 48.1343C38.1361 47.9278 38.2523 47.6479 38.2525 47.3559" fill="white"/>
<path d="M39.1568 52.3615H29.1799C29.0326 52.3573 28.8859 52.3826 28.7485 52.436C28.6111 52.4894 28.4858 52.5698 28.3801 52.6724C28.2743 52.775 28.1903 52.8978 28.1329 53.0335C28.0755 53.1692 28.0459 53.315 28.0459 53.4623C28.0459 53.6096 28.0755 53.7554 28.1329 53.891C28.1903 54.0267 28.2743 54.1495 28.3801 54.2522C28.4858 54.3548 28.6111 54.4352 28.7485 54.4886C28.8859 54.542 29.0326 54.5673 29.1799 54.563H39.1578C39.3051 54.5673 39.4519 54.542 39.5892 54.4886C39.7266 54.4352 39.8519 54.3548 39.9576 54.2522C40.0634 54.1495 40.1474 54.0267 40.2048 53.891C40.2622 53.7554 40.2918 53.6096 40.2918 53.4623C40.2918 53.315 40.2622 53.1692 40.2048 53.0335C40.1474 52.8978 40.0634 52.775 39.9576 52.6724C39.8519 52.5698 39.7266 52.4894 39.5892 52.436C39.4519 52.3826 39.3051 52.3573 39.1578 52.3615" fill="white"/>
<path d="M96.4531 33.7589V21.085H98.2648V32.184H105.129V33.7598L96.4531 33.7589Z" fill="white" fill-opacity="0.8"/>
<path d="M115.334 33.9024C114.616 33.9425 113.897 33.8363 113.221 33.5905C112.545 33.3446 111.926 32.9642 111.402 32.4721C110.895 31.9064 110.507 31.2446 110.261 30.5262C110.015 29.8077 109.916 29.0472 109.97 28.2898V21.0839H111.782V28.2212C111.685 29.3345 112.019 30.4425 112.715 31.3172C113.452 31.9471 114.39 32.2933 115.359 32.2933C116.329 32.2933 117.266 31.9471 118.003 31.3172C118.699 30.4425 119.033 29.3345 118.936 28.2212V21.0839H120.694V28.2898C120.748 29.0465 120.65 29.8063 120.406 30.5245C120.162 31.2427 119.776 31.9049 119.272 32.4721C118.747 32.9655 118.127 33.3467 117.449 33.5926C116.772 33.8385 116.051 33.9439 115.331 33.9024" fill="white" fill-opacity="0.8"/>
<path d="M127.347 33.7578H125.533V21.0839H134.484V22.6597H127.341L127.347 33.7578ZM127.161 27.0765H133.702V28.6337H127.166L127.161 27.0765Z" fill="white" fill-opacity="0.8"/>
<path d="M142.117 33.7587V22.6596H137.77V21.0839H148.26V22.6596H143.912V33.7587H142.117Z" fill="white" fill-opacity="0.8"/>
<path d="M96.4531 33.7672V20.9988H98.2778V32.1766H105.194V33.7626L96.4531 33.7672Z" fill="white" fill-opacity="0.8"/>
<path d="M115.333 33.9128C114.61 33.9531 113.886 33.8462 113.205 33.5986C112.524 33.351 111.901 32.9678 111.373 32.4724C110.863 31.9026 110.472 31.2362 110.224 30.5126C109.977 29.7891 109.877 29.0231 109.931 28.2604V20.9998H111.756V28.1844C111.659 29.3056 111.995 30.4216 112.696 31.3026C113.438 31.9381 114.383 32.2875 115.361 32.2875C116.338 32.2875 117.283 31.9381 118.025 31.3026C118.726 30.4215 119.062 29.3056 118.965 28.1844V20.9998H120.735V28.2576C120.789 29.0196 120.691 29.7848 120.445 30.5082C120.199 31.2315 119.81 31.8984 119.303 32.4696C118.774 32.9665 118.149 33.3505 117.466 33.5982C116.784 33.8459 116.058 33.952 115.333 33.91" fill="white" fill-opacity="0.8"/>
<path d="M127.327 33.7673H125.502V20.9998H134.518V22.5866H127.328L127.327 33.7673ZM127.141 27.0387H133.727V28.6071H127.141V27.0387Z" fill="white" fill-opacity="0.8"/>
<path d="M142.111 33.7672V22.5885H137.731V20.9988H148.297V22.5857H143.918V33.7635L142.111 33.7672Z" fill="white" fill-opacity="0.8"/>
<path d="M152.985 33.7672V33.8805L153.099 33.8804L158.643 33.8767C159.894 33.9662 161.141 33.6534 162.202 32.9842L162.202 32.9845L162.21 32.9788C162.605 32.68 162.921 32.2892 163.131 31.8403C163.34 31.3929 163.437 30.9013 163.413 30.4081C163.435 29.749 163.257 29.0987 162.903 28.5425L162.903 28.5424L162.9 28.5382C162.53 28.0115 162.009 27.6094 161.405 27.3849L161.405 27.3846C161.178 27.302 160.947 27.2322 160.713 27.1755C160.728 27.1703 160.742 27.1651 160.756 27.1599C161.354 26.949 161.868 26.5512 162.221 26.0254C162.574 25.5011 162.749 24.8774 162.72 24.2464C162.747 23.7602 162.652 23.2749 162.442 22.8354C162.231 22.3941 161.911 22.0134 161.513 21.7289L161.513 21.7287L161.508 21.7252C160.544 21.1182 159.416 20.8252 158.278 20.8865H153.099H152.985V20.9997V33.7672ZM153.832 33.1071V27.6616H158.683V27.6618L158.69 27.6614C159.702 27.5976 160.711 27.8286 161.594 28.3262C161.896 28.5754 162.14 28.8882 162.308 29.2423C162.477 29.5993 162.565 29.9894 162.565 30.3844C162.565 30.7794 162.477 31.1695 162.308 31.5265C162.14 31.8805 161.896 32.1933 161.594 32.4425C160.711 32.9402 159.702 33.1711 158.69 33.1074L158.69 33.1071H158.683H153.832ZM158.3 26.906H153.832V21.6616H158.3V21.6618L158.307 21.6614C159.24 21.6069 160.168 21.8419 160.963 22.3342C161.252 22.569 161.485 22.8652 161.646 23.2013C161.807 23.5395 161.891 23.9095 161.891 24.2843C161.891 24.659 161.807 25.029 161.646 25.3672C161.485 25.7033 161.252 25.9994 160.963 26.2343C160.168 26.7263 159.24 26.961 158.307 26.9062L158.307 26.906H158.3Z" fill="white" fill-opacity="0.8" stroke="white" stroke-width="0.226348"/>
<mask id="path-21-outside-1_34_1502" maskUnits="userSpaceOnUse" x="166.775" y="19.9305" width="15" height="15" fill="black">
<rect fill="white" x="166.775" y="19.9305" width="15" height="15"/>
<path d="M174.368 33.8404C173.475 33.8487 172.589 33.6847 171.759 33.3575C170.976 33.0484 170.262 32.5864 169.659 31.9986C169.062 31.4157 168.588 30.7179 168.268 29.9473C167.611 28.3023 167.611 26.4683 168.268 24.8233C168.589 24.0528 169.062 23.355 169.659 22.772C170.262 22.1847 170.976 21.7231 171.759 21.414C173.445 20.7694 175.31 20.7694 176.996 21.414C177.777 21.7218 178.487 22.1836 179.085 22.772C179.679 23.3583 180.152 24.0552 180.477 24.8233C181.146 26.4658 181.146 28.3048 180.477 29.9473C180.152 30.7155 179.679 31.4125 179.085 31.9986C178.488 32.5874 177.777 33.0496 176.996 33.3575C176.159 33.6858 175.267 33.8498 174.368 33.8404ZM174.368 33.275C175.18 33.2826 175.986 33.1341 176.741 32.8375C177.451 32.5582 178.097 32.139 178.641 31.6049C179.185 31.0708 179.615 30.4326 179.907 29.7286C180.504 28.2232 180.504 26.5474 179.907 25.042C179.615 24.338 179.185 23.6998 178.641 23.1657C178.097 22.6315 177.451 22.2123 176.741 21.9331C175.218 21.3485 173.533 21.3485 172.01 21.9331C171.3 22.2122 170.654 22.6314 170.11 23.1655C169.566 23.6997 169.136 24.3379 168.844 25.042C168.248 26.5475 168.248 28.2232 168.844 29.7286C169.136 30.4327 169.566 31.0709 170.11 31.6051C170.654 32.1392 171.3 32.5584 172.01 32.8375C172.759 33.133 173.559 33.2816 174.364 33.275"/>
</mask>
<path d="M174.368 33.8404C173.475 33.8487 172.589 33.6847 171.759 33.3575C170.976 33.0484 170.262 32.5864 169.659 31.9986C169.062 31.4157 168.588 30.7179 168.268 29.9473C167.611 28.3023 167.611 26.4683 168.268 24.8233C168.589 24.0528 169.062 23.355 169.659 22.772C170.262 22.1847 170.976 21.7231 171.759 21.414C173.445 20.7694 175.31 20.7694 176.996 21.414C177.777 21.7218 178.487 22.1836 179.085 22.772C179.679 23.3583 180.152 24.0552 180.477 24.8233C181.146 26.4658 181.146 28.3048 180.477 29.9473C180.152 30.7155 179.679 31.4125 179.085 31.9986C178.488 32.5874 177.777 33.0496 176.996 33.3575C176.159 33.6858 175.267 33.8498 174.368 33.8404ZM174.368 33.275C175.18 33.2826 175.986 33.1341 176.741 32.8375C177.451 32.5582 178.097 32.139 178.641 31.6049C179.185 31.0708 179.615 30.4326 179.907 29.7286C180.504 28.2232 180.504 26.5474 179.907 25.042C179.615 24.338 179.185 23.6998 178.641 23.1657C178.097 22.6315 177.451 22.2123 176.741 21.9331C175.218 21.3485 173.533 21.3485 172.01 21.9331C171.3 22.2122 170.654 22.6314 170.11 23.1655C169.566 23.6997 169.136 24.3379 168.844 25.042C168.248 26.5475 168.248 28.2232 168.844 29.7286C169.136 30.4327 169.566 31.0709 170.11 31.6051C170.654 32.1392 171.3 32.5584 172.01 32.8375C172.759 33.133 173.559 33.2816 174.364 33.275" fill="white" fill-opacity="0.8"/>
<path d="M171.759 33.3575L171.676 33.5681L171.676 33.5681L171.759 33.3575ZM169.659 31.9986L169.817 31.8366L169.817 31.8366L169.659 31.9986ZM168.268 29.9473L168.058 30.0313L168.059 30.0343L168.268 29.9473ZM168.268 24.8233L168.059 24.7363L168.058 24.7394L168.268 24.8233ZM169.659 22.772L169.501 22.6099L169.501 22.61L169.659 22.772ZM171.759 21.414L171.678 21.2026L171.676 21.2035L171.759 21.414ZM176.996 21.414L177.079 21.2034L177.077 21.2026L176.996 21.414ZM179.085 22.772L179.244 22.6109L179.244 22.6106L179.085 22.772ZM180.477 24.8233L180.686 24.7378L180.685 24.735L180.477 24.8233ZM180.477 29.9473L180.685 30.0355L180.686 30.0328L180.477 29.9473ZM179.085 31.9986L179.244 32.1599L179.244 32.1597L179.085 31.9986ZM176.996 33.3575L177.079 33.5682L177.079 33.5681L176.996 33.3575ZM176.741 32.8375L176.824 33.0482L176.824 33.0481L176.741 32.8375ZM179.907 29.7286L180.116 29.8153L180.118 29.812L179.907 29.7286ZM179.907 25.042L180.118 24.9587L180.116 24.9554L179.907 25.042ZM176.741 21.9331L176.824 21.7225L176.822 21.7218L176.741 21.9331ZM172.01 21.9331L171.929 21.7218L171.927 21.7225L172.01 21.9331ZM168.844 25.042L168.635 24.9554L168.634 24.9587L168.844 25.042ZM168.844 29.7286L168.634 29.8119L168.635 29.8152L168.844 29.7286ZM172.01 32.8375L172.093 32.6269L172.093 32.6269L172.01 32.8375ZM174.366 33.6141C173.502 33.6221 172.645 33.4635 171.842 33.1469L171.676 33.5681C172.533 33.906 173.448 34.0753 174.37 34.0668L174.366 33.6141ZM171.842 33.147C171.087 32.8489 170.398 32.4034 169.817 31.8366L169.501 32.1606C170.125 32.7694 170.864 33.2479 171.676 33.5681L171.842 33.147ZM169.817 31.8366C169.242 31.275 168.786 30.6028 168.477 29.8604L168.059 30.0343C168.391 30.8331 168.882 31.5564 169.501 32.1607L169.817 31.8366ZM168.478 29.8634C167.843 28.2723 167.843 26.4983 168.478 24.9072L168.058 24.7394C167.379 26.4382 167.379 28.3324 168.058 30.0313L168.478 29.8634ZM168.477 24.9103C168.786 24.1679 169.242 23.4957 169.817 22.934L169.501 22.61C168.882 23.2143 168.391 23.9376 168.059 24.7363L168.477 24.9103ZM169.817 22.9341C170.399 22.3677 171.087 21.9226 171.842 21.6246L171.676 21.2035C170.865 21.5235 170.126 22.0016 169.501 22.6099L169.817 22.9341ZM171.84 21.6255C173.474 21.0007 175.281 21.0007 176.915 21.6255L177.077 21.2026C175.339 20.5381 173.416 20.5381 171.678 21.2026L171.84 21.6255ZM176.913 21.6246C177.666 21.9212 178.35 22.3663 178.927 22.9333L179.244 22.6106C178.624 22.0009 177.888 21.5223 177.079 21.2035L176.913 21.6246ZM178.926 22.933C179.499 23.4985 179.955 24.1707 180.268 24.9115L180.685 24.735C180.349 23.9397 179.859 23.218 179.244 22.6109L178.926 22.933ZM180.267 24.9087C180.914 26.4965 180.914 28.2742 180.267 29.8619L180.686 30.0328C181.378 28.3355 181.378 26.4351 180.686 24.7378L180.267 24.9087ZM180.268 29.8591C179.955 30.6 179.499 31.2722 178.926 31.8376L179.244 32.1597C179.859 31.5527 180.349 30.831 180.685 30.0355L180.268 29.8591ZM178.926 31.8374C178.35 32.4048 177.666 32.8502 176.913 33.1469L177.079 33.5681C177.888 33.249 178.625 32.7701 179.244 32.1599L178.926 31.8374ZM176.914 33.1468C176.104 33.4645 175.24 33.6231 174.371 33.6141L174.366 34.0668C175.294 34.0764 176.215 33.9071 177.079 33.5682L176.914 33.1468ZM174.366 33.5014C175.207 33.5092 176.041 33.3554 176.824 33.0482L176.658 32.6268C175.93 32.9128 175.153 33.056 174.37 33.0487L174.366 33.5014ZM176.824 33.0481C177.562 32.7577 178.234 32.3218 178.799 31.7664L178.482 31.4434C177.96 31.9562 177.34 32.3587 176.658 32.6269L176.824 33.0481ZM178.799 31.7664C179.365 31.211 179.813 30.5474 180.116 29.8153L179.698 29.6419C179.418 30.3179 179.004 30.9306 178.482 31.4434L178.799 31.7664ZM180.118 29.812C180.735 28.2531 180.735 26.5176 180.118 24.9587L179.697 25.1254C180.272 26.5772 180.272 28.1934 179.697 29.6452L180.118 29.812ZM180.116 24.9554C179.813 24.2232 179.365 23.5596 178.799 23.0042L178.482 23.3272C179.004 23.84 179.418 24.4527 179.698 25.1287L180.116 24.9554ZM178.799 23.0042C178.234 22.4487 177.562 22.0128 176.824 21.7225L176.658 22.1437C177.34 22.4119 177.96 22.8143 178.482 23.3272L178.799 23.0042ZM176.822 21.7218C175.247 21.1172 173.504 21.1172 171.929 21.7218L172.091 22.1444C173.562 21.5799 175.189 21.5799 176.66 22.1444L176.822 21.7218ZM171.927 21.7225C171.189 22.0127 170.517 22.4485 169.952 23.004L170.269 23.327C170.791 22.8142 171.412 22.4117 172.093 22.1438L171.927 21.7225ZM169.952 23.004C169.386 23.5595 168.938 24.2231 168.635 24.9554L169.053 25.1287C169.333 24.4526 169.747 23.8399 170.269 23.327L169.952 23.004ZM168.634 24.9587C168.016 26.5177 168.016 28.253 168.634 29.8119L169.054 29.6453C168.48 28.1934 168.48 26.5773 169.054 25.1254L168.634 24.9587ZM168.635 29.8152C168.938 30.5475 169.386 31.2111 169.952 31.7666L170.269 31.4436C169.747 30.9307 169.333 30.318 169.053 29.642L168.635 29.8152ZM169.952 31.7666C170.517 32.322 171.189 32.7579 171.927 33.0482L172.093 32.6269C171.412 32.3589 170.791 31.9564 170.269 31.4436L169.952 31.7666ZM171.927 33.0481C172.703 33.3542 173.532 33.5081 174.366 33.5014L174.363 33.0487C173.586 33.055 172.816 32.9118 172.093 32.6269L171.927 33.0481Z" fill="white" mask="url(#path-21-outside-1_34_1502)"/>
<path d="M185.078 33.7672V33.881L185.192 33.8804L185.816 33.8766L185.929 33.876V33.7635V29.5915H189.624C190.075 29.6028 190.524 29.569 190.966 29.4913L194.078 33.8331L194.112 33.8804H194.17H194.899H195.12L194.991 33.701L191.81 29.286C192.009 29.2239 192.205 29.1525 192.397 29.072L192.398 29.0718C193.133 28.762 193.758 28.2389 194.192 27.5702L194.192 27.5702L194.194 27.5673C194.621 26.8636 194.835 26.0518 194.812 25.2293C194.836 24.4094 194.621 23.6002 194.193 22.9002L194.194 22.9001L194.191 22.897C193.755 22.233 193.13 21.7137 192.398 21.4052L192.397 21.405C191.52 21.0386 190.575 20.8616 189.624 20.8856H185.191H185.078V20.9987V33.7672ZM189.658 28.7988H185.925V21.6764H189.658V21.6767L189.666 21.6761C190.813 21.5987 191.951 21.9285 192.879 22.6072C193.226 22.9493 193.502 23.3568 193.691 23.8063C193.881 24.2581 193.979 24.7433 193.979 25.2334C193.979 25.7235 193.881 26.2087 193.691 26.6606C193.502 27.1101 193.226 27.5177 192.878 27.8598C191.953 28.544 190.814 28.877 189.666 28.799L189.666 28.7988H189.658Z" fill="white" fill-opacity="0.8" stroke="white" stroke-width="0.226348"/>
<path d="M199.313 33.6568V33.77H199.426H200.046H200.16V33.6568V22.3484L209.028 33.7264L209.062 33.77H209.117H209.628H209.741V33.6568V20.8921V20.7789H209.628H209.008H208.894V20.8921V32.2005L200.026 20.8225L199.992 20.7789H199.937H199.426H199.313V20.8921V33.6568Z" fill="white" fill-opacity="0.8" stroke="white" stroke-width="0.226348"/>
</svg>
